<svg width="564.3921875px" height="122px" xmlns="http://www.w3.org/2000/svg" viewBox="-32.19609374999999 14 564.3921875 122" style="background: rgba(0, 0, 0, 0);" preserveAspectRatio="xMidYMid"><defs><filter id="editing-extrusion" x="-100%" y="-100%" width="300%" height="300%"><feFlood result="color1" flood-color="#444"></feFlood><feConvolveMatrix order="8,8" divisor="1" kernelMatrix="1 0 0 0 0 0 0 0 0 1 0 0 0 0 0 0 0 0 1 0 0 0 0 0 0 0 0 1 0 0 0 0 0 0 0 0 1 0 0 0 0 0 0 0 0 1 0 0 0 0 0 0 0 0 1 0 0 0 0 0 0 0 0 1" in="SourceAlpha" result="extrude"></feConvolveMatrix><feComposite in="color1" in2="extrude" result="comp-extrude" operator="in"></feComposite><feOffset dx="4" dy="4" in="comp-extrude" result="offset-extrude"></feOffset><feMerge><feMergeNode in="offset-extrude"></feMergeNode><feMergeNode in="SourceGraphic"></feMergeNode></feMerge></filter></defs><g filter="url(#editing-extrusion)"><g transform="translate(49.73632887005806, 104.47000122070312)"><path d="M0.45-0.32L0.45-0.32L8.51-42.24L8.51-42.24Q16.06-42.88 20.93-42.88L20.93-42.88L20.93-42.88Q25.79-42.88 28.93-42.46L28.93-42.46L28.93-42.46Q32.06-42.05 34.18-40.96L34.18-40.96L34.18-40.96Q38.40-38.91 38.40-33.28L38.40-33.28L38.40-33.28Q38.40-30.02 35.58-27.26L35.58-27.26L35.58-27.26Q32.96-24.77 30.08-24.19L30.08-24.19L30.08-24.19Q33.15-23.68 35.33-21.38L35.33-21.38L35.33-21.38Q37.63-18.94 37.63-15.17L37.63-15.17L37.63-15.17Q37.63-7.87 32.19-3.62L32.19-3.62L32.19-3.62Q26.75 0.64 16.06 0.64L16.06 0.64L16.06 0.64Q8.70 0.64 0.45-0.32ZM17.86-20.61L14.66-4.03L14.66-4.03Q15.23-3.97 15.36-3.97L15.36-3.97L15.94-3.97L15.94-3.97Q21.18-3.97 23.42-7.42L23.42-7.42L23.42-7.42Q25.09-10.11 25.09-15.04L25.09-15.04L25.09-15.04Q25.09-17.66 23.39-19.07L23.39-19.07L23.39-19.07Q21.70-20.48 17.86-20.61L17.86-20.61ZM27.58-33.22L27.58-33.22L27.58-33.22Q27.58-38.53 22.46-38.53L22.46-38.53L21.89-38.53L21.89-38.53Q21.63-38.53 21.25-38.46L21.25-38.46L18.69-24.96L19.33-24.96L19.33-24.96Q27.58-25.15 27.58-33.22ZM67.78-10.82L67.78-10.82L67.78-10.82Q69.38-9.73 69.38-7.33L69.38-7.33L69.38-7.33Q69.38-4.93 68.16-3.39L68.16-3.39L68.16-3.39Q66.94-1.86 64.96-0.83L64.96-0.83L64.96-0.83Q60.86 1.28 56.45 1.28L56.45 1.28L56.45 1.28Q52.03 1.28 49.44 0.32L49.44 0.32L49.44 0.32Q46.85-0.64 45.12-2.43L45.12-2.43L45.12-2.43Q41.73-5.82 41.73-12.03L41.73-12.03L41.73-12.03Q41.73-21.70 46.98-27.58L46.98-27.58L46.98-27.58Q52.61-33.92 62.40-33.92L62.40-33.92L62.40-33.92Q68.48-33.92 71.49-31.36L71.49-31.36L71.49-31.36Q73.73-29.44 73.73-26.30L73.73-26.30L73.73-26.30Q73.73-15.04 54.27-15.04L54.27-15.04L54.27-15.04Q54.02-13.38 54.02-11.97L54.02-11.97L54.02-11.97Q54.02-9.02 55.33-7.90L55.33-7.90L55.33-7.90Q56.64-6.78 59.07-6.78L59.07-6.78L59.07-6.78Q61.50-6.78 64.10-7.90L64.10-7.90L64.10-7.90Q66.69-9.02 67.78-10.82ZM54.72-17.79L54.72-17.79L54.72-17.79Q59.26-17.79 61.89-20.61L61.89-20.61L61.89-20.61Q64.51-23.30 64.51-27.58L64.51-27.58L64.51-27.58Q64.51-29.06 63.97-29.86L63.97-29.86L63.97-29.86Q63.42-30.66 62.34-30.66L62.34-30.66L62.34-30.66Q61.25-30.66 60.32-30.24L60.32-30.24L60.32-30.24Q59.39-29.82 58.43-28.42L58.43-28.42L58.43-28.42Q56.06-25.22 54.72-17.79ZM78.69-1.92L78.69-1.92L78.69-1.92Q77.18-3.58 76.51-6.21L76.51-6.21L76.51-6.21Q75.84-8.83 75.84-13.12L75.84-13.12L75.84-13.12Q75.84-17.41 77.31-21.31L77.31-21.31L77.31-21.31Q78.78-25.22 81.47-28.03L81.47-28.03L81.47-28.03Q86.98-33.92 96.06-33.92L96.06-33.92L96.06-33.92Q99.33-33.92 101.70-32.83L101.70-32.83L112.64-33.92L107.90-8.96L107.90-8.96Q107.71-8.19 107.71-6.78L107.71-6.78L107.71-6.78Q107.71-5.38 108.58-4.48L108.58-4.48L108.58-4.48Q109.44-3.58 110.72-3.46L110.72-3.46L110.72-3.46Q110.08-1.28 107.74 0L107.74 0L107.74 0Q105.41 1.28 102.78 1.28L102.78 1.28L102.78 1.28Q100.16 1.28 98.40 0.29L98.40 0.29L98.40 0.29Q96.64-0.70 96.13-2.37L96.13-2.37L96.13-2.37Q95.10-0.77 92.93 0.26L92.93 0.26L92.93 0.26Q90.75 1.28 87.84 1.28L87.84 1.28L87.84 1.28Q84.93 1.28 82.56 0.51L82.56 0.51L82.56 0.51Q80.19-0.26 78.69-1.92ZM92.19-27.90L92.19-27.90L92.19-27.90Q91.46-26.75 90.82-24.80L90.82-24.80L90.82-24.80Q90.18-22.85 89.12-17.63L89.12-17.63L89.12-17.63Q88.06-12.42 88.06-8.70L88.06-8.70L88.06-8.70Q88.06-4.99 88.64-3.90L88.64-3.90L88.64-3.90Q89.22-2.82 90.24-2.82L90.24-2.82L90.24-2.82Q92.29-2.82 93.79-4.77L93.79-4.77L93.79-4.77Q95.30-6.72 95.87-10.18L95.87-10.18L99.26-28.93L99.26-28.93Q97.92-30.08 96.35-30.08L96.35-30.08L96.35-30.08Q94.78-30.08 93.86-29.57L93.86-29.57L93.86-29.57Q92.93-29.06 92.19-27.90ZM136.64-2.69L136.64-2.69L136.64-2.69Q133.57 1.28 125.95 1.28L125.95 1.28L125.95 1.28Q121.98 1.28 119.10-1.12L119.10-1.12L119.10-1.12Q116.22-3.52 116.22-6.98L116.22-6.98L116.22-6.98Q116.22-8.90 116.42-9.86L116.42-9.86L120.70-32.64L133.70-33.92L129.02-9.22L129.02-9.22Q128.77-7.81 128.77-6.98L128.77-6.98L128.77-6.98Q128.77-3.26 131.01-3.26L131.01-3.26L131.01-3.26Q133.50-3.26 135.30-6.66L135.30-6.66L135.30-6.66Q135.87-7.74 136.13-9.15L136.13-9.15L140.67-32.64L153.28-33.92L148.54-8.96L148.54-8.96Q148.35-8 148.35-6.98L148.35-6.98L148.35-6.98Q148.35-5.95 148.93-4.83L148.93-4.83L148.93-4.83Q149.50-3.71 151.36-3.46L151.36-3.46L151.36-3.46Q150.98-1.92 149.63-0.90L149.63-0.90L149.63-0.90Q146.82 1.28 143.78 1.28L143.78 1.28L143.78 1.28Q140.74 1.28 138.94 0.19L138.94 0.19L138.94 0.19Q137.15-0.90 136.64-2.69ZM157.76-6.40L157.76-6.40L157.76-6.40Q157.76-8.13 158.66-12.48L158.66-12.48L162.05-29.76L158.27-29.76L158.53-31.68L158.53-31.68Q166.21-33.98 173.63-39.62L173.63-39.62L176.70-39.62L175.17-32.64L180.16-32.64L179.58-29.76L174.66-29.76L171.39-12.48L171.39-12.48Q170.56-8.51 170.56-7.17L170.56-7.17L170.56-7.17Q170.56-4.10 173.25-3.46L173.25-3.46L173.25-3.46Q172.61-1.28 170.30 0L170.30 0L170.30 0Q168.00 1.28 164.74 1.28L164.74 1.28L164.74 1.28Q161.47 1.28 159.62-0.77L159.62-0.77L159.62-0.77Q157.76-2.82 157.76-6.40ZM200.19-7.23L200.19-7.23L200.19-7.23Q196.86-3.78 190.78-3.78L190.78-3.78L190.78-3.78Q183.17-3.78 181.57-9.34L181.57-9.34L181.57-9.34Q181.06-11.01 181.06-12.86L181.06-12.86L181.06-12.86Q181.06-14.72 181.44-16.64L181.44-16.64L184.45-32.64L197.44-33.92L193.92-15.30L193.92-15.30Q193.79-14.46 193.60-13.57L193.60-13.57L193.60-13.57Q193.41-12.67 193.41-11.74L193.41-11.74L193.41-11.74Q193.41-10.82 193.73-10.21L193.73-10.21L193.73-10.21Q194.05-9.60 194.50-9.22L194.50-9.22L194.50-9.22Q195.26-8.70 196.64-8.70L196.64-8.70L196.64-8.70Q198.02-8.70 199.20-10.37L199.20-10.37L199.20-10.37Q200.38-12.03 200.96-14.91L200.96-14.91L204.48-32.64L217.09-33.92L212.29-8.77L212.29-8.77Q209.92 3.52 205.06 8.38L205.06 8.38L205.06 8.38Q202.56 10.88 199.33 11.87L199.33 11.87L199.33 11.87Q196.10 12.86 191.94 12.86L191.94 12.86L191.94 12.86Q185.22 12.86 181.38 10.75L181.38 10.75L181.38 10.75Q177.54 8.64 177.54 5.12L177.54 5.12L177.54 5.12Q177.54 2.50 179.52 0.99L179.52 0.99L179.52 0.99Q181.50-0.51 184.58-0.51L184.58-0.51L184.58-0.51Q187.26-0.51 189.31 0.64L189.31 0.64L189.31 0.64Q190.53 1.34 191.10 2.24L191.10 2.24L191.10 2.24Q189.63 3.52 189.63 5.63L189.63 5.63L189.63 5.63Q189.63 8.45 192.19 8.45L192.19 8.45L192.19 8.45Q196.42 8.45 198.85-1.28L198.85-1.28L198.85-1.28Q199.55-4.16 200.19-7.23ZM238.53-22.46L238.53-22.46L238.53-22.46Q239.42-24.83 239.42-26.88L239.42-26.88L239.42-26.88Q239.42-30.66 236.35-30.66L236.35-30.66L236.35-30.66Q234.75-30.66 233.44-29.22L233.44-29.22L233.44-29.22Q232.13-27.78 232.13-25.98L232.13-25.98L232.13-25.98Q232.13-24.70 233.15-23.68L233.15-23.68L233.15-23.68Q234.62-22.27 238.40-19.97L238.40-19.97L238.40-19.97Q242.18-17.66 243.62-15.78L243.62-15.78L243.62-15.78Q245.06-13.89 245.06-11.30L245.06-11.30L245.06-11.30Q245.06-8.70 243.81-6.34L243.81-6.34L243.81-6.34Q242.56-3.97 240.32-2.30L240.32-2.30L240.32-2.30Q235.52 1.28 227.84 1.28L227.84 1.28L227.84 1.28Q223.68 1.28 220.48-0.90L220.48-0.90L220.48-0.90Q217.28-3.01 217.28-5.50L217.28-5.50L217.28-5.50Q217.28-8 219.10-9.47L219.10-9.47L219.10-9.47Q220.93-10.94 223.62-10.94L223.62-10.94L223.62-10.94Q226.30-10.94 227.97-9.92L227.97-9.92L227.97-9.92Q227.14-7.81 227.14-6.40L227.14-6.40L227.14-6.40Q227.14-2.18 230.72-2.18L230.72-2.18L230.72-2.18Q232.26-2.18 233.28-3.14L233.28-3.14L233.28-3.14Q234.30-4.10 234.30-5.76L234.30-5.76L234.30-5.76Q234.30-9.02 228.80-12.48L228.80-12.48L228.80-12.48Q224.32-15.42 223.30-16.58L223.30-16.58L223.30-16.58Q221.57-18.62 221.57-21.18L221.57-21.18L221.57-21.18Q221.57-23.74 222.78-26.18L222.78-26.18L222.78-26.18Q224-28.61 226.24-30.34L226.24-30.34L226.24-30.34Q230.91-33.92 239.04-33.92L239.04-33.92L239.04-33.92Q243.20-33.92 245.66-32.26L245.66-32.26L245.66-32.26Q248.13-30.59 248.13-27.78L248.13-27.78L248.13-27.78Q248.13-24.96 246.43-23.36L246.43-23.36L246.43-23.36Q244.74-21.76 241.66-21.76L241.66-21.76L241.66-21.76Q239.55-21.76 238.53-22.46ZM251.52-6.40L251.52-6.40L251.52-6.40Q251.52-8.13 252.42-12.48L252.42-12.48L255.81-29.76L252.03-29.76L252.29-31.68L252.29-31.68Q259.97-33.98 267.39-39.62L267.39-39.62L270.46-39.62L268.93-32.64L273.92-32.64L273.34-29.76L268.42-29.76L265.15-12.48L265.15-12.48Q264.32-8.51 264.32-7.17L264.32-7.17L264.32-7.17Q264.32-4.10 267.01-3.46L267.01-3.46L267.01-3.46Q266.37-1.28 264.06 0L264.06 0L264.06 0Q261.76 1.28 258.50 1.28L258.50 1.28L258.50 1.28Q255.23 1.28 253.38-0.77L253.38-0.77L253.38-0.77Q251.52-2.82 251.52-6.40ZM293.95-7.23L293.95-7.23L293.95-7.23Q290.62-3.78 284.54-3.78L284.54-3.78L284.54-3.78Q276.93-3.78 275.33-9.34L275.33-9.34L275.33-9.34Q274.82-11.01 274.82-12.86L274.82-12.86L274.82-12.86Q274.82-14.72 275.20-16.64L275.20-16.64L278.21-32.64L291.20-33.92L287.68-15.30L287.68-15.30Q287.55-14.46 287.36-13.57L287.36-13.57L287.36-13.57Q287.17-12.67 287.17-11.74L287.17-11.74L287.17-11.74Q287.17-10.82 287.49-10.21L287.49-10.21L287.49-10.21Q287.81-9.60 288.26-9.22L288.26-9.22L288.26-9.22Q289.02-8.70 290.40-8.70L290.40-8.70L290.40-8.70Q291.78-8.70 292.96-10.37L292.96-10.37L292.96-10.37Q294.14-12.03 294.72-14.91L294.72-14.91L298.24-32.64L310.85-33.92L306.05-8.77L306.05-8.77Q303.68 3.52 298.82 8.38L298.82 8.38L298.82 8.38Q296.32 10.88 293.09 11.87L293.09 11.87L293.09 11.87Q289.86 12.86 285.70 12.86L285.70 12.86L285.70 12.86Q278.98 12.86 275.14 10.75L275.14 10.75L275.14 10.75Q271.30 8.64 271.30 5.12L271.30 5.12L271.30 5.12Q271.30 2.50 273.28 0.99L273.28 0.99L273.28 0.99Q275.26-0.51 278.34-0.51L278.34-0.51L278.34-0.51Q281.02-0.51 283.07 0.64L283.07 0.64L283.07 0.64Q284.29 1.34 284.86 2.24L284.86 2.24L284.86 2.24Q283.39 3.52 283.39 5.63L283.39 5.63L283.39 5.63Q283.39 8.45 285.95 8.45L285.95 8.45L285.95 8.45Q290.18 8.45 292.61-1.28L292.61-1.28L292.61-1.28Q293.31-4.16 293.95-7.23ZM328.45-3.52L328.45-3.52L328.45-3.52Q326.46 1.28 320.13 1.28L320.13 1.28L320.13 1.28Q316.93 1.28 314.88-0.96L314.88-0.96L314.88-0.96Q313.22-2.82 313.22-4.93L313.22-4.93L313.22-4.93Q313.22-9.73 315.46-20.22L315.46-20.22L320.13-44.80L333.12-46.08L326.91-13.70L326.91-13.70Q325.82-8.96 325.82-7.30L325.82-7.30L325.82-7.30Q325.82-3.65 328.45-3.52ZM359.81-10.82L359.81-10.82L359.81-10.82Q361.41-9.73 361.41-7.33L361.41-7.33L361.41-7.33Q361.41-4.93 360.19-3.39L360.19-3.39L360.19-3.39Q358.98-1.86 356.99-0.83L356.99-0.83L356.99-0.83Q352.90 1.28 348.48 1.28L348.48 1.28L348.48 1.28Q344.06 1.28 341.47 0.32L341.47 0.32L341.47 0.32Q338.88-0.64 337.15-2.43L337.15-2.43L337.15-2.43Q333.76-5.82 333.76-12.03L333.76-12.03L333.76-12.03Q333.76-21.70 339.01-27.58L339.01-27.58L339.01-27.58Q344.64-33.92 354.43-33.92L354.43-33.92L354.43-33.92Q360.51-33.92 363.52-31.36L363.52-31.36L363.52-31.36Q365.76-29.44 365.76-26.30L365.76-26.30L365.76-26.30Q365.76-15.04 346.30-15.04L346.30-15.04L346.30-15.04Q346.05-13.38 346.05-11.97L346.05-11.97L346.05-11.97Q346.05-9.02 347.36-7.90L347.36-7.90L347.36-7.90Q348.67-6.78 351.10-6.78L351.10-6.78L351.10-6.78Q353.54-6.78 356.13-7.90L356.13-7.90L356.13-7.90Q358.72-9.02 359.81-10.82ZM346.75-17.79L346.75-17.79L346.75-17.79Q351.30-17.79 353.92-20.61L353.92-20.61L353.92-20.61Q356.54-23.30 356.54-27.58L356.54-27.58L356.54-27.58Q356.54-29.06 356-29.86L356-29.86L356-29.86Q355.46-30.66 354.37-30.66L354.37-30.66L354.37-30.66Q353.28-30.66 352.35-30.24L352.35-30.24L352.35-30.24Q351.42-29.82 350.46-28.42L350.46-28.42L350.46-28.42Q348.10-25.22 346.75-17.79ZM387.97-17.98L387.97-17.98L387.97-17.98Q390.27-22.08 390.27-26.24L390.27-26.24L390.27-26.24Q390.27-28.99 388.29-28.99L388.29-28.99L388.29-28.99Q386.75-28.99 385.15-26.37L385.15-26.37L385.15-26.37Q383.49-23.74 382.98-20.35L382.98-20.35L379.65 0L366.40 1.28L372.93-32.64L383.49-33.92L382.34-27.46L382.34-27.46Q385.47-33.92 392.51-33.92L392.51-33.92L392.51-33.92Q396.22-33.92 398.24-32L398.24-32L398.24-32Q400.26-30.08 400.26-26.14L400.26-26.14L400.26-26.14Q400.26-22.21 397.66-19.71L397.66-19.71L397.66-19.71Q395.07-17.22 390.66-17.22L390.66-17.22L390.66-17.22Q388.74-17.22 387.97-17.98Z" fill="#ccc"></path></g></g><style>text {
  font-size: 64px;
  font-family: Arial Black;
  dominant-baseline: central;
  text-anchor: middle;
}</style></svg>